<?xml version="1.0" encoding="UTF-8"?>
<!DOCTYPE svg PUBLIC "-//W3C//DTD SVG 1.1//EN" "http://www.w3.org/Graphics/SVG/1.1/DTD/svg11.dtd">
<svg width="204mm" height="118mm" viewBox="0 0 20400 11800" version="1.1" xmlns="http://www.w3.org/2000/svg" stroke-width="28.222" stroke-linejoin="round" xml:space="preserve">
 <path fill="none" stroke="rgb(179,179,179)" stroke-linejoin="round" d="M 8166,9911 L 2004,9911 2004,1567 14327,1567 14327,9911 8166,9911 Z"/>
 <path fill="none" stroke="rgb(179,179,179)" stroke-linejoin="round" d="M 14327,9910 L 2004,9910"/>
 <path fill="none" stroke="rgb(179,179,179)" stroke-linejoin="round" d="M 14327,8519 L 2004,8519"/>
 <path fill="none" stroke="rgb(179,179,179)" stroke-linejoin="round" d="M 14327,7128 L 2004,7128"/>
 <path fill="none" stroke="rgb(179,179,179)" stroke-linejoin="round" d="M 14327,5738 L 2004,5738"/>
 <path fill="none" stroke="rgb(179,179,179)" stroke-linejoin="round" d="M 14327,4347 L 2004,4347"/>
 <path fill="none" stroke="rgb(179,179,179)" stroke-linejoin="round" d="M 14327,2956 L 2004,2956"/>
 <path fill="none" stroke="rgb(179,179,179)" stroke-linejoin="round" d="M 14327,1565 L 2004,1565"/>
 <path fill="none" stroke="rgb(179,179,179)" stroke-linejoin="round" d="M 2004,10060 L 2004,9910"/>
 <path fill="none" stroke="rgb(179,179,179)" stroke-linejoin="round" d="M 2004,10060 L 2004,9910"/>
 <path fill="none" stroke="rgb(179,179,179)" stroke-linejoin="round" d="M 3544,10060 L 3544,9910"/>
 <path fill="none" stroke="rgb(179,179,179)" stroke-linejoin="round" d="M 3544,10060 L 3544,9910"/>
 <path fill="none" stroke="rgb(179,179,179)" stroke-linejoin="round" d="M 5085,10060 L 5085,9910"/>
 <path fill="none" stroke="rgb(179,179,179)" stroke-linejoin="round" d="M 5085,10060 L 5085,9910"/>
 <path fill="none" stroke="rgb(179,179,179)" stroke-linejoin="round" d="M 6625,10060 L 6625,9910"/>
 <path fill="none" stroke="rgb(179,179,179)" stroke-linejoin="round" d="M 6625,10060 L 6625,9910"/>
 <path fill="none" stroke="rgb(179,179,179)" stroke-linejoin="round" d="M 8166,10060 L 8166,9910"/>
 <path fill="none" stroke="rgb(179,179,179)" stroke-linejoin="round" d="M 8166,10060 L 8166,9910"/>
 <path fill="none" stroke="rgb(179,179,179)" stroke-linejoin="round" d="M 9706,10060 L 9706,9910"/>
 <path fill="none" stroke="rgb(179,179,179)" stroke-linejoin="round" d="M 9706,10060 L 9706,9910"/>
 <path fill="none" stroke="rgb(179,179,179)" stroke-linejoin="round" d="M 11246,10060 L 11246,9910"/>
 <path fill="none" stroke="rgb(179,179,179)" stroke-linejoin="round" d="M 11246,10060 L 11246,9910"/>
 <path fill="none" stroke="rgb(179,179,179)" stroke-linejoin="round" d="M 12786,10060 L 12786,9910"/>
 <path fill="none" stroke="rgb(179,179,179)" stroke-linejoin="round" d="M 12786,10060 L 12786,9910"/>
 <path fill="none" stroke="rgb(179,179,179)" stroke-linejoin="round" d="M 14327,10060 L 14327,9910"/>
 <path fill="none" stroke="rgb(179,179,179)" stroke-linejoin="round" d="M 14327,10060 L 14327,9910"/>
 <path fill="none" stroke="rgb(179,179,179)" stroke-linejoin="round" d="M 2004,9910 L 14327,9910"/>
 <path fill="none" stroke="rgb(179,179,179)" stroke-linejoin="round" d="M 1854,9910 L 2004,9910"/>
 <path fill="none" stroke="rgb(179,179,179)" stroke-linejoin="round" d="M 1854,9910 L 2004,9910"/>
 <path fill="none" stroke="rgb(179,179,179)" stroke-linejoin="round" d="M 1854,8519 L 2004,8519"/>
 <path fill="none" stroke="rgb(179,179,179)" stroke-linejoin="round" d="M 1854,8519 L 2004,8519"/>
 <path fill="none" stroke="rgb(179,179,179)" stroke-linejoin="round" d="M 1854,7128 L 2004,7128"/>
 <path fill="none" stroke="rgb(179,179,179)" stroke-linejoin="round" d="M 1854,7128 L 2004,7128"/>
 <path fill="none" stroke="rgb(179,179,179)" stroke-linejoin="round" d="M 1854,5738 L 2004,5738"/>
 <path fill="none" stroke="rgb(179,179,179)" stroke-linejoin="round" d="M 1854,5738 L 2004,5738"/>
 <path fill="none" stroke="rgb(179,179,179)" stroke-linejoin="round" d="M 1854,4347 L 2004,4347"/>
 <path fill="none" stroke="rgb(179,179,179)" stroke-linejoin="round" d="M 1854,4347 L 2004,4347"/>
 <path fill="none" stroke="rgb(179,179,179)" stroke-linejoin="round" d="M 1854,2956 L 2004,2956"/>
 <path fill="none" stroke="rgb(179,179,179)" stroke-linejoin="round" d="M 1854,2956 L 2004,2956"/>
 <path fill="none" stroke="rgb(179,179,179)" stroke-linejoin="round" d="M 1854,1565 L 2004,1565"/>
 <path fill="none" stroke="rgb(179,179,179)" stroke-linejoin="round" d="M 1854,1565 L 2004,1565"/>
 <path fill="none" stroke="rgb(179,179,179)" stroke-linejoin="round" d="M 2004,9910 L 2004,1565"/>
 <path fill="none" stroke="rgb(0,69,134)" stroke-width="80" stroke-linejoin="round" d="M 2004,6293 L 3544,6386 5085,5655 6625,4718 8166,4156 9706,3637 11246,3456 12786,3210 14327,3114"/>
 <path fill="rgb(0,69,134)" stroke="none" d="M 1879,6168 L 1879,6418 2129,6418 2129,6168 1879,6168 Z"/>
 <path fill="none" stroke="rgb(0,69,134)" stroke-linejoin="round" d="M 1879,6168 L 1879,6418 2129,6418 2129,6168 1879,6168 Z"/>
 <path fill="rgb(0,69,134)" stroke="none" d="M 3419,6261 L 3419,6511 3669,6511 3669,6261 3419,6261 Z"/>
 <path fill="none" stroke="rgb(0,69,134)" stroke-linejoin="round" d="M 3419,6261 L 3419,6511 3669,6511 3669,6261 3419,6261 Z"/>
 <path fill="rgb(0,69,134)" stroke="none" d="M 4960,5530 L 4960,5780 5210,5780 5210,5530 4960,5530 Z"/>
 <path fill="none" stroke="rgb(0,69,134)" stroke-linejoin="round" d="M 4960,5530 L 4960,5780 5210,5780 5210,5530 4960,5530 Z"/>
 <path fill="rgb(0,69,134)" stroke="none" d="M 6500,4593 L 6500,4843 6750,4843 6750,4593 6500,4593 Z"/>
 <path fill="none" stroke="rgb(0,69,134)" stroke-linejoin="round" d="M 6500,4593 L 6500,4843 6750,4843 6750,4593 6500,4593 Z"/>
 <path fill="rgb(0,69,134)" stroke="none" d="M 8041,4031 L 8041,4281 8291,4281 8291,4031 8041,4031 Z"/>
 <path fill="none" stroke="rgb(0,69,134)" stroke-linejoin="round" d="M 8041,4031 L 8041,4281 8291,4281 8291,4031 8041,4031 Z"/>
 <path fill="rgb(0,69,134)" stroke="none" d="M 9581,3512 L 9581,3762 9831,3762 9831,3512 9581,3512 Z"/>
 <path fill="none" stroke="rgb(0,69,134)" stroke-linejoin="round" d="M 9581,3512 L 9581,3762 9831,3762 9831,3512 9581,3512 Z"/>
 <path fill="rgb(0,69,134)" stroke="none" d="M 11121,3331 L 11121,3581 11371,3581 11371,3331 11121,3331 Z"/>
 <path fill="none" stroke="rgb(0,69,134)" stroke-linejoin="round" d="M 11121,3331 L 11121,3581 11371,3581 11371,3331 11121,3331 Z"/>
 <path fill="rgb(0,69,134)" stroke="none" d="M 12661,3085 L 12661,3335 12911,3335 12911,3085 12661,3085 Z"/>
 <path fill="none" stroke="rgb(0,69,134)" stroke-linejoin="round" d="M 12661,3085 L 12661,3335 12911,3335 12911,3085 12661,3085 Z"/>
 <path fill="rgb(0,69,134)" stroke="none" d="M 14202,2989 L 14202,3239 14452,3239 14452,2989 14202,2989 Z"/>
 <path fill="none" stroke="rgb(0,69,134)" stroke-linejoin="round" d="M 14202,2989 L 14202,3239 14452,3239 14452,2989 14202,2989 Z"/>
 <path fill="none" stroke="rgb(255,66,14)" stroke-width="80" stroke-linejoin="round" d="M 2004,6757 L 3544,6589 5085,5892 6625,4831 8166,4145 9706,3743 11246,3391 12786,3217 14327,3100"/>
 <path fill="rgb(255,66,14)" stroke="none" d="M 1879,6757 L 2004,6882 2129,6757 2004,6632 1879,6757 Z"/>
 <path fill="none" stroke="rgb(255,66,14)" stroke-linejoin="round" d="M 1879,6757 L 2004,6882 2129,6757 2004,6632 1879,6757 Z"/>
 <path fill="rgb(255,66,14)" stroke="none" d="M 3419,6589 L 3544,6714 3669,6589 3544,6464 3419,6589 Z"/>
 <path fill="none" stroke="rgb(255,66,14)" stroke-linejoin="round" d="M 3419,6589 L 3544,6714 3669,6589 3544,6464 3419,6589 Z"/>
 <path fill="rgb(255,66,14)" stroke="none" d="M 4960,5892 L 5085,6017 5210,5892 5085,5768 4960,5892 Z"/>
 <path fill="none" stroke="rgb(255,66,14)" stroke-linejoin="round" d="M 4960,5892 L 5085,6017 5210,5892 5085,5768 4960,5892 Z"/>
 <path fill="rgb(255,66,14)" stroke="none" d="M 6500,4831 L 6625,4956 6750,4831 6625,4706 6500,4831 Z"/>
 <path fill="none" stroke="rgb(255,66,14)" stroke-linejoin="round" d="M 6500,4831 L 6625,4956 6750,4831 6625,4706 6500,4831 Z"/>
 <path fill="rgb(255,66,14)" stroke="none" d="M 8041,4145 L 8166,4270 8291,4145 8166,4020 8041,4145 Z"/>
 <path fill="none" stroke="rgb(255,66,14)" stroke-linejoin="round" d="M 8041,4145 L 8166,4270 8291,4145 8166,4020 8041,4145 Z"/>
 <path fill="rgb(255,66,14)" stroke="none" d="M 9581,3743 L 9706,3868 9831,3743 9706,3618 9581,3743 Z"/>
 <path fill="none" stroke="rgb(255,66,14)" stroke-linejoin="round" d="M 9581,3743 L 9706,3868 9831,3743 9706,3618 9581,3743 Z"/>
 <path fill="rgb(255,66,14)" stroke="none" d="M 11121,3391 L 11246,3516 11371,3391 11246,3266 11121,3391 Z"/>
 <path fill="none" stroke="rgb(255,66,14)" stroke-linejoin="round" d="M 11121,3391 L 11246,3516 11371,3391 11246,3266 11121,3391 Z"/>
 <path fill="rgb(255,66,14)" stroke="none" d="M 12661,3217 L 12786,3342 12911,3217 12786,3092 12661,3217 Z"/>
 <path fill="none" stroke="rgb(255,66,14)" stroke-linejoin="round" d="M 12661,3217 L 12786,3342 12911,3217 12786,3092 12661,3217 Z"/>
 <path fill="rgb(255,66,14)" stroke="none" d="M 14202,3100 L 14327,3225 14452,3100 14327,2975 14202,3100 Z"/>
 <path fill="none" stroke="rgb(255,66,14)" stroke-linejoin="round" d="M 14202,3100 L 14327,3225 14452,3100 14327,2975 14202,3100 Z"/>
 <text class="TextShape"><tspan class="TextParagraph" font-family="Liberation Sans, sans-serif" font-size="353px" font-weight="400"><tspan class="TextPosition" x="1613" y="10495"><tspan fill="rgb(0,0,0)" stroke="none">4KiB</tspan></tspan></tspan></text>
 <text class="TextShape"><tspan class="TextParagraph" font-family="Liberation Sans, sans-serif" font-size="353px" font-weight="400"><tspan class="TextPosition" x="3153" y="10495"><tspan fill="rgb(0,0,0)" stroke="none">8KiB</tspan></tspan></tspan></text>
 <text class="TextShape"><tspan class="TextParagraph" font-family="Liberation Sans, sans-serif" font-size="353px" font-weight="400"><tspan class="TextPosition" x="4596" y="10495"><tspan fill="rgb(0,0,0)" stroke="none">16KiB</tspan></tspan></tspan></text>
 <text class="TextShape"><tspan class="TextParagraph" font-family="Liberation Sans, sans-serif" font-size="353px" font-weight="400"><tspan class="TextPosition" x="6136" y="10495"><tspan fill="rgb(0,0,0)" stroke="none">32KiB</tspan></tspan></tspan></text>
 <text class="TextShape"><tspan class="TextParagraph" font-family="Liberation Sans, sans-serif" font-size="353px" font-weight="400"><tspan class="TextPosition" x="7677" y="10495"><tspan fill="rgb(0,0,0)" stroke="none">64KiB</tspan></tspan></tspan></text>
 <text class="TextShape"><tspan class="TextParagraph" font-family="Liberation Sans, sans-serif" font-size="353px" font-weight="400"><tspan class="TextPosition" x="9120" y="10495"><tspan fill="rgb(0,0,0)" stroke="none">128KiB</tspan></tspan></tspan></text>
 <text class="TextShape"><tspan class="TextParagraph" font-family="Liberation Sans, sans-serif" font-size="353px" font-weight="400"><tspan class="TextPosition" x="10661" y="10495"><tspan fill="rgb(0,0,0)" stroke="none">256KiB</tspan></tspan></tspan></text>
 <text class="TextShape"><tspan class="TextParagraph" font-family="Liberation Sans, sans-serif" font-size="353px" font-weight="400"><tspan class="TextPosition" x="12201" y="10495"><tspan fill="rgb(0,0,0)" stroke="none">512KiB</tspan></tspan></tspan></text>
 <text class="TextShape"><tspan class="TextParagraph" font-family="Liberation Sans, sans-serif" font-size="353px" font-weight="400"><tspan class="TextPosition" x="13909" y="10495"><tspan fill="rgb(0,0,0)" stroke="none">1MiB</tspan></tspan></tspan></text>
 <text class="TextShape"><tspan class="TextParagraph" font-family="Liberation Sans, sans-serif" font-size="353px" font-weight="400"><tspan class="TextPosition" x="1363" y="10037"><tspan fill="rgb(0,0,0)" stroke="none">75</tspan></tspan></tspan></text>
 <text class="TextShape"><tspan class="TextParagraph" font-family="Liberation Sans, sans-serif" font-size="353px" font-weight="400"><tspan class="TextPosition" x="1363" y="8646"><tspan fill="rgb(0,0,0)" stroke="none">80</tspan></tspan></tspan></text>
 <text class="TextShape"><tspan class="TextParagraph" font-family="Liberation Sans, sans-serif" font-size="353px" font-weight="400"><tspan class="TextPosition" x="1363" y="7255"><tspan fill="rgb(0,0,0)" stroke="none">85</tspan></tspan></tspan></text>
 <text class="TextShape"><tspan class="TextParagraph" font-family="Liberation Sans, sans-serif" font-size="353px" font-weight="400"><tspan class="TextPosition" x="1363" y="5864"><tspan fill="rgb(0,0,0)" stroke="none">90</tspan></tspan></tspan></text>
 <text class="TextShape"><tspan class="TextParagraph" font-family="Liberation Sans, sans-serif" font-size="353px" font-weight="400"><tspan class="TextPosition" x="1363" y="4473"><tspan fill="rgb(0,0,0)" stroke="none">95</tspan></tspan></tspan></text>
 <text class="TextShape"><tspan class="TextParagraph" font-family="Liberation Sans, sans-serif" font-size="353px" font-weight="400"><tspan class="TextPosition" x="1168" y="3082"><tspan fill="rgb(0,0,0)" stroke="none">100</tspan></tspan></tspan></text>
 <text class="TextShape"><tspan class="TextParagraph" font-family="Liberation Sans, sans-serif" font-size="353px" font-weight="400"><tspan class="TextPosition" x="1168" y="1691"><tspan fill="rgb(0,0,0)" stroke="none">105</tspan></tspan></tspan></text>
 <text class="TextShape"><tspan class="TextParagraph" font-family="Liberation Sans, sans-serif" font-size="459px" font-weight="400"><tspan class="TextPosition" x="7512" y="900"><tspan fill="rgb(0,0,0)" stroke="none">Tomcat CPU Usage (c160)</tspan></tspan></tspan></text>
 <path fill="none" stroke="rgb(0,69,134)" stroke-width="80" stroke-linejoin="round" d="M 15465,5620 L 16265,5620"/>
 <path fill="rgb(0,69,134)" stroke="none" d="M 15759,5515 L 15759,5726 15970,5726 15970,5515 15759,5515 Z"/>
 <path fill="none" stroke="rgb(0,69,134)" stroke-linejoin="round" d="M 15759,5515 L 15759,5726 15970,5726 15970,5515 15759,5515 Z"/>
 <path fill="none" stroke="rgb(255,66,14)" stroke-width="80" stroke-linejoin="round" d="M 15465,6139 L 16265,6139"/>
 <path fill="rgb(255,66,14)" stroke="none" d="M 15759,6139 L 15865,6245 15970,6139 15865,6034 15759,6139 Z"/>
 <path fill="none" stroke="rgb(255,66,14)" stroke-linejoin="round" d="M 15759,6139 L 15865,6245 15970,6139 15865,6034 15759,6139 Z"/>
 <text class="TextShape"><tspan class="TextParagraph" font-family="Liberation Sans, sans-serif" font-size="353px" font-weight="400"><tspan class="TextPosition" x="16365" y="5746"><tspan fill="rgb(0,0,0)" stroke="none">NIO.2-OpenSSL-APR</tspan></tspan></tspan></text>
 <text class="TextShape"><tspan class="TextParagraph" font-family="Liberation Sans, sans-serif" font-size="353px" font-weight="400"><tspan class="TextPosition" x="16365" y="6265"><tspan fill="rgb(0,0,0)" stroke="none">NIO.2-OpenSSL-TCN2</tspan></tspan></tspan></text>
 <text class="TextShape"><tspan class="TextParagraph" font-family="Liberation Sans, sans-serif" font-size="318px" font-weight="400"><tspan class="TextPosition" x="7580" y="11191"><tspan fill="rgb(0,0,0)" stroke="none">File Size</tspan></tspan></tspan></text>
 <text class="TextShape" transform="translate(804,7071) rotate(-90) translate(-804,-7071)"><tspan class="TextParagraph" font-family="Liberation Sans, sans-serif" font-size="318px" font-weight="400"><tspan class="TextPosition" x="804" y="7071"><tspan fill="rgb(0,0,0)" stroke="none">CPU Usage (%)</tspan></tspan></tspan></text>
</svg>