<?xml version="1.0" encoding="UTF-8"?>
<!DOCTYPE svg PUBLIC "-//W3C//DTD SVG 1.1//EN" "http://www.w3.org/Graphics/SVG/1.1/DTD/svg11.dtd">
<svg width="199mm" height="102mm" viewBox="0 0 19900 10200" version="1.1" xmlns="http://www.w3.org/2000/svg" stroke-width="28.222" stroke-linejoin="round" xml:space="preserve">
 <path fill="none" stroke="rgb(179,179,179)" stroke-linejoin="round" d="M 8106,8397 L 2211,8397 2211,1505 14000,1505 14000,8397 8106,8397 Z"/>
 <path fill="none" stroke="rgb(179,179,179)" stroke-linejoin="round" d="M 14000,8396 L 2211,8396"/>
 <path fill="none" stroke="rgb(179,179,179)" stroke-linejoin="round" d="M 14000,7247 L 2211,7247"/>
 <path fill="none" stroke="rgb(179,179,179)" stroke-linejoin="round" d="M 14000,6098 L 2211,6098"/>
 <path fill="none" stroke="rgb(179,179,179)" stroke-linejoin="round" d="M 14000,4950 L 2211,4950"/>
 <path fill="none" stroke="rgb(179,179,179)" stroke-linejoin="round" d="M 14000,3801 L 2211,3801"/>
 <path fill="none" stroke="rgb(179,179,179)" stroke-linejoin="round" d="M 14000,2652 L 2211,2652"/>
 <path fill="none" stroke="rgb(179,179,179)" stroke-linejoin="round" d="M 14000,1503 L 2211,1503"/>
 <path fill="none" stroke="rgb(179,179,179)" stroke-linejoin="round" d="M 2211,8546 L 2211,8396"/>
 <path fill="none" stroke="rgb(179,179,179)" stroke-linejoin="round" d="M 2211,8546 L 2211,8396"/>
 <path fill="none" stroke="rgb(179,179,179)" stroke-linejoin="round" d="M 3895,8546 L 3895,8396"/>
 <path fill="none" stroke="rgb(179,179,179)" stroke-linejoin="round" d="M 3895,8546 L 3895,8396"/>
 <path fill="none" stroke="rgb(179,179,179)" stroke-linejoin="round" d="M 5579,8546 L 5579,8396"/>
 <path fill="none" stroke="rgb(179,179,179)" stroke-linejoin="round" d="M 5579,8546 L 5579,8396"/>
 <path fill="none" stroke="rgb(179,179,179)" stroke-linejoin="round" d="M 7263,8546 L 7263,8396"/>
 <path fill="none" stroke="rgb(179,179,179)" stroke-linejoin="round" d="M 7263,8546 L 7263,8396"/>
 <path fill="none" stroke="rgb(179,179,179)" stroke-linejoin="round" d="M 8948,8546 L 8948,8396"/>
 <path fill="none" stroke="rgb(179,179,179)" stroke-linejoin="round" d="M 8948,8546 L 8948,8396"/>
 <path fill="none" stroke="rgb(179,179,179)" stroke-linejoin="round" d="M 10631,8546 L 10631,8396"/>
 <path fill="none" stroke="rgb(179,179,179)" stroke-linejoin="round" d="M 10631,8546 L 10631,8396"/>
 <path fill="none" stroke="rgb(179,179,179)" stroke-linejoin="round" d="M 12315,8546 L 12315,8396"/>
 <path fill="none" stroke="rgb(179,179,179)" stroke-linejoin="round" d="M 12315,8546 L 12315,8396"/>
 <path fill="none" stroke="rgb(179,179,179)" stroke-linejoin="round" d="M 14000,8546 L 14000,8396"/>
 <path fill="none" stroke="rgb(179,179,179)" stroke-linejoin="round" d="M 14000,8546 L 14000,8396"/>
 <path fill="none" stroke="rgb(179,179,179)" stroke-linejoin="round" d="M 2211,8396 L 14000,8396"/>
 <path fill="none" stroke="rgb(179,179,179)" stroke-linejoin="round" d="M 2061,8396 L 2211,8396"/>
 <path fill="none" stroke="rgb(179,179,179)" stroke-linejoin="round" d="M 2061,8396 L 2211,8396"/>
 <path fill="none" stroke="rgb(179,179,179)" stroke-linejoin="round" d="M 2061,7247 L 2211,7247"/>
 <path fill="none" stroke="rgb(179,179,179)" stroke-linejoin="round" d="M 2061,7247 L 2211,7247"/>
 <path fill="none" stroke="rgb(179,179,179)" stroke-linejoin="round" d="M 2061,6098 L 2211,6098"/>
 <path fill="none" stroke="rgb(179,179,179)" stroke-linejoin="round" d="M 2061,6098 L 2211,6098"/>
 <path fill="none" stroke="rgb(179,179,179)" stroke-linejoin="round" d="M 2061,4950 L 2211,4950"/>
 <path fill="none" stroke="rgb(179,179,179)" stroke-linejoin="round" d="M 2061,4950 L 2211,4950"/>
 <path fill="none" stroke="rgb(179,179,179)" stroke-linejoin="round" d="M 2061,3801 L 2211,3801"/>
 <path fill="none" stroke="rgb(179,179,179)" stroke-linejoin="round" d="M 2061,3801 L 2211,3801"/>
 <path fill="none" stroke="rgb(179,179,179)" stroke-linejoin="round" d="M 2061,2652 L 2211,2652"/>
 <path fill="none" stroke="rgb(179,179,179)" stroke-linejoin="round" d="M 2061,2652 L 2211,2652"/>
 <path fill="none" stroke="rgb(179,179,179)" stroke-linejoin="round" d="M 2061,1503 L 2211,1503"/>
 <path fill="none" stroke="rgb(179,179,179)" stroke-linejoin="round" d="M 2061,1503 L 2211,1503"/>
 <path fill="none" stroke="rgb(179,179,179)" stroke-linejoin="round" d="M 2211,8396 L 2211,1503"/>
 <path fill="none" stroke="rgb(0,69,134)" stroke-width="80" stroke-linejoin="round" d="M 2211,8137 L 3895,7416 5579,5788 7263,4691 8948,3253 10631,2440 12315,2306 14000,2440"/>
 <path fill="rgb(0,69,134)" stroke="none" d="M 2086,8012 L 2086,8262 2336,8262 2336,8012 2086,8012 Z"/>
 <path fill="none" stroke="rgb(0,69,134)" stroke-linejoin="round" d="M 2086,8012 L 2086,8262 2336,8262 2336,8012 2086,8012 Z"/>
 <path fill="rgb(0,69,134)" stroke="none" d="M 3770,7291 L 3770,7541 4020,7541 4020,7291 3770,7291 Z"/>
 <path fill="none" stroke="rgb(0,69,134)" stroke-linejoin="round" d="M 3770,7291 L 3770,7541 4020,7541 4020,7291 3770,7291 Z"/>
 <path fill="rgb(0,69,134)" stroke="none" d="M 5454,5663 L 5454,5913 5704,5913 5704,5663 5454,5663 Z"/>
 <path fill="none" stroke="rgb(0,69,134)" stroke-linejoin="round" d="M 5454,5663 L 5454,5913 5704,5913 5704,5663 5454,5663 Z"/>
 <path fill="rgb(0,69,134)" stroke="none" d="M 7138,4566 L 7138,4816 7388,4816 7388,4566 7138,4566 Z"/>
 <path fill="none" stroke="rgb(0,69,134)" stroke-linejoin="round" d="M 7138,4566 L 7138,4816 7388,4816 7388,4566 7138,4566 Z"/>
 <path fill="rgb(0,69,134)" stroke="none" d="M 8823,3128 L 8823,3378 9073,3378 9073,3128 8823,3128 Z"/>
 <path fill="none" stroke="rgb(0,69,134)" stroke-linejoin="round" d="M 8823,3128 L 8823,3378 9073,3378 9073,3128 8823,3128 Z"/>
 <path fill="rgb(0,69,134)" stroke="none" d="M 10506,2315 L 10506,2565 10756,2565 10756,2315 10506,2315 Z"/>
 <path fill="none" stroke="rgb(0,69,134)" stroke-linejoin="round" d="M 10506,2315 L 10506,2565 10756,2565 10756,2315 10506,2315 Z"/>
 <path fill="rgb(0,69,134)" stroke="none" d="M 12190,2181 L 12190,2431 12440,2431 12440,2181 12190,2181 Z"/>
 <path fill="none" stroke="rgb(0,69,134)" stroke-linejoin="round" d="M 12190,2181 L 12190,2431 12440,2431 12440,2181 12190,2181 Z"/>
 <path fill="rgb(0,69,134)" stroke="none" d="M 13875,2315 L 13875,2565 14125,2565 14125,2315 13875,2315 Z"/>
 <path fill="none" stroke="rgb(0,69,134)" stroke-linejoin="round" d="M 13875,2315 L 13875,2565 14125,2565 14125,2315 13875,2315 Z"/>
 <path fill="none" stroke="rgb(255,66,14)" stroke-width="80" stroke-linejoin="round" d="M 2211,8243 L 3895,7498 5579,5821 7263,4599 8948,3455 10631,2957 12315,3078 14000,2645"/>
 <path fill="rgb(255,66,14)" stroke="none" d="M 2086,8243 L 2211,8368 2336,8243 2211,8118 2086,8243 Z"/>
 <path fill="none" stroke="rgb(255,66,14)" stroke-linejoin="round" d="M 2086,8243 L 2211,8368 2336,8243 2211,8118 2086,8243 Z"/>
 <path fill="rgb(255,66,14)" stroke="none" d="M 3770,7498 L 3895,7623 4020,7498 3895,7373 3770,7498 Z"/>
 <path fill="none" stroke="rgb(255,66,14)" stroke-linejoin="round" d="M 3770,7498 L 3895,7623 4020,7498 3895,7373 3770,7498 Z"/>
 <path fill="rgb(255,66,14)" stroke="none" d="M 5454,5821 L 5579,5946 5704,5821 5579,5696 5454,5821 Z"/>
 <path fill="none" stroke="rgb(255,66,14)" stroke-linejoin="round" d="M 5454,5821 L 5579,5946 5704,5821 5579,5696 5454,5821 Z"/>
 <path fill="rgb(255,66,14)" stroke="none" d="M 7138,4599 L 7263,4724 7388,4599 7263,4474 7138,4599 Z"/>
 <path fill="none" stroke="rgb(255,66,14)" stroke-linejoin="round" d="M 7138,4599 L 7263,4724 7388,4599 7263,4474 7138,4599 Z"/>
 <path fill="rgb(255,66,14)" stroke="none" d="M 8823,3455 L 8948,3580 9073,3455 8948,3330 8823,3455 Z"/>
 <path fill="none" stroke="rgb(255,66,14)" stroke-linejoin="round" d="M 8823,3455 L 8948,3580 9073,3455 8948,3330 8823,3455 Z"/>
 <path fill="rgb(255,66,14)" stroke="none" d="M 10506,2957 L 10631,3082 10756,2957 10631,2832 10506,2957 Z"/>
 <path fill="none" stroke="rgb(255,66,14)" stroke-linejoin="round" d="M 10506,2957 L 10631,3082 10756,2957 10631,2832 10506,2957 Z"/>
 <path fill="rgb(255,66,14)" stroke="none" d="M 12190,3078 L 12315,3203 12440,3078 12315,2953 12190,3078 Z"/>
 <path fill="none" stroke="rgb(255,66,14)" stroke-linejoin="round" d="M 12190,3078 L 12315,3203 12440,3078 12315,2953 12190,3078 Z"/>
 <path fill="rgb(255,66,14)" stroke="none" d="M 13875,2645 L 14000,2770 14125,2645 14000,2520 13875,2645 Z"/>
 <path fill="none" stroke="rgb(255,66,14)" stroke-linejoin="round" d="M 13875,2645 L 14000,2770 14125,2645 14000,2520 13875,2645 Z"/>
 <text class="TextShape"><tspan class="TextParagraph" font-family="Liberation Sans" font-size="353px" font-weight="400"><tspan class="TextPosition" x="1820" y="8981"><tspan fill="rgb(0,0,0)" stroke="none">4KiB</tspan></tspan></tspan></text>
 <text class="TextShape"><tspan class="TextParagraph" font-family="Liberation Sans" font-size="353px" font-weight="400"><tspan class="TextPosition" x="3406" y="8981"><tspan fill="rgb(0,0,0)" stroke="none">16KiB</tspan></tspan></tspan></text>
 <text class="TextShape"><tspan class="TextParagraph" font-family="Liberation Sans" font-size="353px" font-weight="400"><tspan class="TextPosition" x="5090" y="8981"><tspan fill="rgb(0,0,0)" stroke="none">64KiB</tspan></tspan></tspan></text>
 <text class="TextShape"><tspan class="TextParagraph" font-family="Liberation Sans" font-size="353px" font-weight="400"><tspan class="TextPosition" x="6677" y="8981"><tspan fill="rgb(0,0,0)" stroke="none">128KiB</tspan></tspan></tspan></text>
 <text class="TextShape"><tspan class="TextParagraph" font-family="Liberation Sans" font-size="353px" font-weight="400"><tspan class="TextPosition" x="8362" y="8981"><tspan fill="rgb(0,0,0)" stroke="none">512KiB</tspan></tspan></tspan></text>
 <text class="TextShape"><tspan class="TextParagraph" font-family="Liberation Sans" font-size="353px" font-weight="400"><tspan class="TextPosition" x="10213" y="8981"><tspan fill="rgb(0,0,0)" stroke="none">2MiB</tspan></tspan></tspan></text>
 <text class="TextShape"><tspan class="TextParagraph" font-family="Liberation Sans" font-size="353px" font-weight="400"><tspan class="TextPosition" x="11897" y="8981"><tspan fill="rgb(0,0,0)" stroke="none">8MiB</tspan></tspan></tspan></text>
 <text class="TextShape"><tspan class="TextParagraph" font-family="Liberation Sans" font-size="353px" font-weight="400"><tspan class="TextPosition" x="13484" y="8981"><tspan fill="rgb(0,0,0)" stroke="none">32MiB</tspan></tspan></tspan></text>
 <text class="TextShape"><tspan class="TextParagraph" font-family="Liberation Sans" font-size="353px" font-weight="400"><tspan class="TextPosition" x="1766" y="8523"><tspan fill="rgb(0,0,0)" stroke="none">0</tspan></tspan></tspan></text>
 <text class="TextShape"><tspan class="TextParagraph" font-family="Liberation Sans" font-size="353px" font-weight="400"><tspan class="TextPosition" x="1375" y="7374"><tspan fill="rgb(0,0,0)" stroke="none">100</tspan></tspan></tspan></text>
 <text class="TextShape"><tspan class="TextParagraph" font-family="Liberation Sans" font-size="353px" font-weight="400"><tspan class="TextPosition" x="1375" y="6225"><tspan fill="rgb(0,0,0)" stroke="none">200</tspan></tspan></tspan></text>
 <text class="TextShape"><tspan class="TextParagraph" font-family="Liberation Sans" font-size="353px" font-weight="400"><tspan class="TextPosition" x="1375" y="5076"><tspan fill="rgb(0,0,0)" stroke="none">300</tspan></tspan></tspan></text>
 <text class="TextShape"><tspan class="TextParagraph" font-family="Liberation Sans" font-size="353px" font-weight="400"><tspan class="TextPosition" x="1375" y="3927"><tspan fill="rgb(0,0,0)" stroke="none">400</tspan></tspan></tspan></text>
 <text class="TextShape"><tspan class="TextParagraph" font-family="Liberation Sans" font-size="353px" font-weight="400"><tspan class="TextPosition" x="1375" y="2778"><tspan fill="rgb(0,0,0)" stroke="none">500</tspan></tspan></tspan></text>
 <text class="TextShape"><tspan class="TextParagraph" font-family="Liberation Sans" font-size="353px" font-weight="400"><tspan class="TextPosition" x="1375" y="1629"><tspan fill="rgb(0,0,0)" stroke="none">600</tspan></tspan></tspan></text>
 <text class="TextShape"><tspan class="TextParagraph" font-family="Liberation Sans" font-size="459px" font-weight="400"><tspan class="TextPosition" x="5887" y="842"><tspan fill="rgb(0,0,0)" stroke="none">Tomcat Throughput (c40)</tspan></tspan></tspan></text>
 <path fill="none" stroke="rgb(0,69,134)" stroke-width="80" stroke-linejoin="round" d="M 15032,4847 L 15832,4847"/>
 <path fill="rgb(0,69,134)" stroke="none" d="M 15326,4742 L 15326,4953 15537,4953 15537,4742 15326,4742 Z"/>
 <path fill="none" stroke="rgb(0,69,134)" stroke-linejoin="round" d="M 15326,4742 L 15326,4953 15537,4953 15537,4742 15326,4742 Z"/>
 <path fill="none" stroke="rgb(255,66,14)" stroke-width="80" stroke-linejoin="round" d="M 15032,5366 L 15832,5366"/>
 <path fill="rgb(255,66,14)" stroke="none" d="M 15326,5366 L 15432,5472 15537,5366 15432,5261 15326,5366 Z"/>
 <path fill="none" stroke="rgb(255,66,14)" stroke-linejoin="round" d="M 15326,5366 L 15432,5472 15537,5366 15432,5261 15326,5366 Z"/>
 <text class="TextShape"><tspan class="TextParagraph" font-family="Liberation Sans" font-size="353px" font-weight="400"><tspan class="TextPosition" x="15932" y="4973"><tspan fill="rgb(0,0,0)" stroke="none">NIO.2-OpenSSL-APR</tspan></tspan></tspan></text>
 <text class="TextShape"><tspan class="TextParagraph" font-family="Liberation Sans" font-size="353px" font-weight="400"><tspan class="TextPosition" x="15932" y="5492"><tspan fill="rgb(0,0,0)" stroke="none">NIO.2-OpenSSL-TCN2</tspan></tspan></tspan></text>
 <text class="TextShape"><tspan class="TextParagraph" font-family="Liberation Sans" font-size="318px" font-weight="400"><tspan class="TextPosition" x="7374" y="9646"><tspan fill="rgb(0,0,0)" stroke="none">File Size</tspan></tspan></tspan></text>
 <text class="TextShape" transform="translate(825,6492) rotate(-90) translate(-825,-6492)"><tspan class="TextParagraph" font-family="Liberation Sans" font-size="318px" font-weight="400"><tspan class="TextPosition" x="825" y="6492"><tspan fill="rgb(0,0,0)" stroke="none">Throughput (MiB/s)</tspan></tspan></tspan></text>
</svg>