<?xml version="1.0" encoding="UTF-8"?>
<!DOCTYPE svg PUBLIC "-//W3C//DTD SVG 1.1//EN" "http://www.w3.org/Graphics/SVG/1.1/DTD/svg11.dtd">
<svg width="199mm" height="113mm" viewBox="0 0 19900 11300" version="1.1" xmlns="http://www.w3.org/2000/svg" stroke-width="28.222" stroke-linejoin="round" xml:space="preserve">
 <path fill="rgb(255,255,255)" stroke="none" d="M 9954,11345 L 0,11345 0,0 19907,0 19907,11345 9954,11345 Z"/>
 <path fill="none" stroke="rgb(179,179,179)" stroke-linejoin="round" d="M 8533,9504 L 2211,9504 2211,1549 14855,1549 14855,9504 8533,9504 Z"/>
 <path fill="none" stroke="rgb(179,179,179)" stroke-linejoin="round" d="M 14855,9503 L 2211,9503"/>
 <path fill="none" stroke="rgb(179,179,179)" stroke-linejoin="round" d="M 14855,8619 L 2211,8619"/>
 <path fill="none" stroke="rgb(179,179,179)" stroke-linejoin="round" d="M 14855,7735 L 2211,7735"/>
 <path fill="none" stroke="rgb(179,179,179)" stroke-linejoin="round" d="M 14855,6851 L 2211,6851"/>
 <path fill="none" stroke="rgb(179,179,179)" stroke-linejoin="round" d="M 14855,5967 L 2211,5967"/>
 <path fill="none" stroke="rgb(179,179,179)" stroke-linejoin="round" d="M 14855,5084 L 2211,5084"/>
 <path fill="none" stroke="rgb(179,179,179)" stroke-linejoin="round" d="M 14855,4200 L 2211,4200"/>
 <path fill="none" stroke="rgb(179,179,179)" stroke-linejoin="round" d="M 14855,3316 L 2211,3316"/>
 <path fill="none" stroke="rgb(179,179,179)" stroke-linejoin="round" d="M 14855,2432 L 2211,2432"/>
 <path fill="none" stroke="rgb(179,179,179)" stroke-linejoin="round" d="M 14855,1548 L 2211,1548"/>
 <path fill="none" stroke="rgb(179,179,179)" stroke-linejoin="round" d="M 2211,9653 L 2211,9503"/>
 <path fill="none" stroke="rgb(179,179,179)" stroke-linejoin="round" d="M 2211,9653 L 2211,9503"/>
 <path fill="none" stroke="rgb(179,179,179)" stroke-linejoin="round" d="M 4017,9653 L 4017,9503"/>
 <path fill="none" stroke="rgb(179,179,179)" stroke-linejoin="round" d="M 4017,9653 L 4017,9503"/>
 <path fill="none" stroke="rgb(179,179,179)" stroke-linejoin="round" d="M 5823,9653 L 5823,9503"/>
 <path fill="none" stroke="rgb(179,179,179)" stroke-linejoin="round" d="M 5823,9653 L 5823,9503"/>
 <path fill="none" stroke="rgb(179,179,179)" stroke-linejoin="round" d="M 7630,9653 L 7630,9503"/>
 <path fill="none" stroke="rgb(179,179,179)" stroke-linejoin="round" d="M 7630,9653 L 7630,9503"/>
 <path fill="none" stroke="rgb(179,179,179)" stroke-linejoin="round" d="M 9436,9653 L 9436,9503"/>
 <path fill="none" stroke="rgb(179,179,179)" stroke-linejoin="round" d="M 9436,9653 L 9436,9503"/>
 <path fill="none" stroke="rgb(179,179,179)" stroke-linejoin="round" d="M 11242,9653 L 11242,9503"/>
 <path fill="none" stroke="rgb(179,179,179)" stroke-linejoin="round" d="M 11242,9653 L 11242,9503"/>
 <path fill="none" stroke="rgb(179,179,179)" stroke-linejoin="round" d="M 13048,9653 L 13048,9503"/>
 <path fill="none" stroke="rgb(179,179,179)" stroke-linejoin="round" d="M 13048,9653 L 13048,9503"/>
 <path fill="none" stroke="rgb(179,179,179)" stroke-linejoin="round" d="M 14855,9653 L 14855,9503"/>
 <path fill="none" stroke="rgb(179,179,179)" stroke-linejoin="round" d="M 14855,9653 L 14855,9503"/>
 <path fill="none" stroke="rgb(179,179,179)" stroke-linejoin="round" d="M 2211,9503 L 14855,9503"/>
 <path fill="none" stroke="rgb(179,179,179)" stroke-linejoin="round" d="M 2061,9503 L 2211,9503"/>
 <path fill="none" stroke="rgb(179,179,179)" stroke-linejoin="round" d="M 2061,9503 L 2211,9503"/>
 <path fill="none" stroke="rgb(179,179,179)" stroke-linejoin="round" d="M 2061,8619 L 2211,8619"/>
 <path fill="none" stroke="rgb(179,179,179)" stroke-linejoin="round" d="M 2061,8619 L 2211,8619"/>
 <path fill="none" stroke="rgb(179,179,179)" stroke-linejoin="round" d="M 2061,7735 L 2211,7735"/>
 <path fill="none" stroke="rgb(179,179,179)" stroke-linejoin="round" d="M 2061,7735 L 2211,7735"/>
 <path fill="none" stroke="rgb(179,179,179)" stroke-linejoin="round" d="M 2061,6851 L 2211,6851"/>
 <path fill="none" stroke="rgb(179,179,179)" stroke-linejoin="round" d="M 2061,6851 L 2211,6851"/>
 <path fill="none" stroke="rgb(179,179,179)" stroke-linejoin="round" d="M 2061,5967 L 2211,5967"/>
 <path fill="none" stroke="rgb(179,179,179)" stroke-linejoin="round" d="M 2061,5967 L 2211,5967"/>
 <path fill="none" stroke="rgb(179,179,179)" stroke-linejoin="round" d="M 2061,5084 L 2211,5084"/>
 <path fill="none" stroke="rgb(179,179,179)" stroke-linejoin="round" d="M 2061,5084 L 2211,5084"/>
 <path fill="none" stroke="rgb(179,179,179)" stroke-linejoin="round" d="M 2061,4200 L 2211,4200"/>
 <path fill="none" stroke="rgb(179,179,179)" stroke-linejoin="round" d="M 2061,4200 L 2211,4200"/>
 <path fill="none" stroke="rgb(179,179,179)" stroke-linejoin="round" d="M 2061,3316 L 2211,3316"/>
 <path fill="none" stroke="rgb(179,179,179)" stroke-linejoin="round" d="M 2061,3316 L 2211,3316"/>
 <path fill="none" stroke="rgb(179,179,179)" stroke-linejoin="round" d="M 2061,2432 L 2211,2432"/>
 <path fill="none" stroke="rgb(179,179,179)" stroke-linejoin="round" d="M 2061,2432 L 2211,2432"/>
 <path fill="none" stroke="rgb(179,179,179)" stroke-linejoin="round" d="M 2061,1548 L 2211,1548"/>
 <path fill="none" stroke="rgb(179,179,179)" stroke-linejoin="round" d="M 2061,1548 L 2211,1548"/>
 <path fill="none" stroke="rgb(179,179,179)" stroke-linejoin="round" d="M 2211,9503 L 2211,1548"/>
 <path fill="none" stroke="rgb(0,69,134)" stroke-width="80" stroke-linejoin="round" d="M 2211,9230 L 4017,9071 5823,9062 7630,9053 9436,9047 11242,9033 13048,9036 14855,9037"/>
 <path fill="rgb(0,69,134)" stroke="none" d="M 2086,9105 L 2086,9355 2336,9355 2336,9105 2086,9105 Z"/>
 <path fill="none" stroke="rgb(0,69,134)" stroke-linejoin="round" d="M 2086,9105 L 2086,9355 2336,9355 2336,9105 2086,9105 Z"/>
 <path fill="rgb(0,69,134)" stroke="none" d="M 3892,8946 L 3892,9196 4142,9196 4142,8946 3892,8946 Z"/>
 <path fill="none" stroke="rgb(0,69,134)" stroke-linejoin="round" d="M 3892,8946 L 3892,9196 4142,9196 4142,8946 3892,8946 Z"/>
 <path fill="rgb(0,69,134)" stroke="none" d="M 5698,8937 L 5698,9187 5948,9187 5948,8937 5698,8937 Z"/>
 <path fill="none" stroke="rgb(0,69,134)" stroke-linejoin="round" d="M 5698,8937 L 5698,9187 5948,9187 5948,8937 5698,8937 Z"/>
 <path fill="rgb(0,69,134)" stroke="none" d="M 7505,8928 L 7505,9178 7755,9178 7755,8928 7505,8928 Z"/>
 <path fill="none" stroke="rgb(0,69,134)" stroke-linejoin="round" d="M 7505,8928 L 7505,9178 7755,9178 7755,8928 7505,8928 Z"/>
 <path fill="rgb(0,69,134)" stroke="none" d="M 9311,8922 L 9311,9172 9561,9172 9561,8922 9311,8922 Z"/>
 <path fill="none" stroke="rgb(0,69,134)" stroke-linejoin="round" d="M 9311,8922 L 9311,9172 9561,9172 9561,8922 9311,8922 Z"/>
 <path fill="rgb(0,69,134)" stroke="none" d="M 11117,8908 L 11117,9158 11367,9158 11367,8908 11117,8908 Z"/>
 <path fill="none" stroke="rgb(0,69,134)" stroke-linejoin="round" d="M 11117,8908 L 11117,9158 11367,9158 11367,8908 11117,8908 Z"/>
 <path fill="rgb(0,69,134)" stroke="none" d="M 12923,8911 L 12923,9161 13173,9161 13173,8911 12923,8911 Z"/>
 <path fill="none" stroke="rgb(0,69,134)" stroke-linejoin="round" d="M 12923,8911 L 12923,9161 13173,9161 13173,8911 12923,8911 Z"/>
 <path fill="rgb(0,69,134)" stroke="none" d="M 14730,8912 L 14730,9162 14980,9162 14980,8912 14730,8912 Z"/>
 <path fill="none" stroke="rgb(0,69,134)" stroke-linejoin="round" d="M 14730,8912 L 14730,9162 14980,9162 14980,8912 14730,8912 Z"/>
 <path fill="none" stroke="rgb(255,66,14)" stroke-width="80" stroke-linejoin="round" d="M 2211,8752 L 4017,7061 5823,5526 7630,4525 9436,5237 11242,3574 13048,2488 14855,3574"/>
 <path fill="rgb(255,66,14)" stroke="none" d="M 2086,8752 L 2211,8877 2336,8752 2211,8627 2086,8752 Z"/>
 <path fill="none" stroke="rgb(255,66,14)" stroke-linejoin="round" d="M 2086,8752 L 2211,8877 2336,8752 2211,8627 2086,8752 Z"/>
 <path fill="rgb(255,66,14)" stroke="none" d="M 3892,7061 L 4017,7186 4142,7061 4017,6936 3892,7061 Z"/>
 <path fill="none" stroke="rgb(255,66,14)" stroke-linejoin="round" d="M 3892,7061 L 4017,7186 4142,7061 4017,6936 3892,7061 Z"/>
 <path fill="rgb(255,66,14)" stroke="none" d="M 5698,5526 L 5823,5651 5948,5526 5823,5401 5698,5526 Z"/>
 <path fill="none" stroke="rgb(255,66,14)" stroke-linejoin="round" d="M 5698,5526 L 5823,5651 5948,5526 5823,5401 5698,5526 Z"/>
 <path fill="rgb(255,66,14)" stroke="none" d="M 7505,4525 L 7630,4650 7755,4525 7630,4400 7505,4525 Z"/>
 <path fill="none" stroke="rgb(255,66,14)" stroke-linejoin="round" d="M 7505,4525 L 7630,4650 7755,4525 7630,4400 7505,4525 Z"/>
 <path fill="rgb(255,66,14)" stroke="none" d="M 9311,5237 L 9436,5362 9561,5237 9436,5112 9311,5237 Z"/>
 <path fill="none" stroke="rgb(255,66,14)" stroke-linejoin="round" d="M 9311,5237 L 9436,5362 9561,5237 9436,5112 9311,5237 Z"/>
 <path fill="rgb(255,66,14)" stroke="none" d="M 11117,3574 L 11242,3699 11367,3574 11242,3449 11117,3574 Z"/>
 <path fill="none" stroke="rgb(255,66,14)" stroke-linejoin="round" d="M 11117,3574 L 11242,3699 11367,3574 11242,3449 11117,3574 Z"/>
 <path fill="rgb(255,66,14)" stroke="none" d="M 12923,2488 L 13048,2613 13173,2488 13048,2363 12923,2488 Z"/>
 <path fill="none" stroke="rgb(255,66,14)" stroke-linejoin="round" d="M 12923,2488 L 13048,2613 13173,2488 13048,2363 12923,2488 Z"/>
 <path fill="rgb(255,66,14)" stroke="none" d="M 14730,3574 L 14855,3699 14980,3574 14855,3449 14730,3574 Z"/>
 <path fill="none" stroke="rgb(255,66,14)" stroke-linejoin="round" d="M 14730,3574 L 14855,3699 14980,3574 14855,3449 14730,3574 Z"/>
 <text class="TextShape"><tspan class="TextParagraph" font-family="Liberation Sans" font-size="353px" font-weight="400"><tspan class="TextPosition" x="1820" y="10088"><tspan fill="rgb(0,0,0)" stroke="none">4KiB</tspan></tspan></tspan></text>
 <text class="TextShape"><tspan class="TextParagraph" font-family="Liberation Sans" font-size="353px" font-weight="400"><tspan class="TextPosition" x="3528" y="10088"><tspan fill="rgb(0,0,0)" stroke="none">16KiB</tspan></tspan></tspan></text>
 <text class="TextShape"><tspan class="TextParagraph" font-family="Liberation Sans" font-size="353px" font-weight="400"><tspan class="TextPosition" x="5334" y="10088"><tspan fill="rgb(0,0,0)" stroke="none">64KiB</tspan></tspan></tspan></text>
 <text class="TextShape"><tspan class="TextParagraph" font-family="Liberation Sans" font-size="353px" font-weight="400"><tspan class="TextPosition" x="7044" y="10088"><tspan fill="rgb(0,0,0)" stroke="none">128KiB</tspan></tspan></tspan></text>
 <text class="TextShape"><tspan class="TextParagraph" font-family="Liberation Sans" font-size="353px" font-weight="400"><tspan class="TextPosition" x="8850" y="10088"><tspan fill="rgb(0,0,0)" stroke="none">512KiB</tspan></tspan></tspan></text>
 <text class="TextShape"><tspan class="TextParagraph" font-family="Liberation Sans" font-size="353px" font-weight="400"><tspan class="TextPosition" x="10824" y="10088"><tspan fill="rgb(0,0,0)" stroke="none">2MiB</tspan></tspan></tspan></text>
 <text class="TextShape"><tspan class="TextParagraph" font-family="Liberation Sans" font-size="353px" font-weight="400"><tspan class="TextPosition" x="12630" y="10088"><tspan fill="rgb(0,0,0)" stroke="none">8MiB</tspan></tspan></tspan></text>
 <text class="TextShape"><tspan class="TextParagraph" font-family="Liberation Sans" font-size="353px" font-weight="400"><tspan class="TextPosition" x="14339" y="10088"><tspan fill="rgb(0,0,0)" stroke="none">32MiB</tspan></tspan></tspan></text>
 <text class="TextShape"><tspan class="TextParagraph" font-family="Liberation Sans" font-size="353px" font-weight="400"><tspan class="TextPosition" x="1766" y="9630"><tspan fill="rgb(0,0,0)" stroke="none">0</tspan></tspan></tspan></text>
 <text class="TextShape"><tspan class="TextParagraph" font-family="Liberation Sans" font-size="353px" font-weight="400"><tspan class="TextPosition" x="1375" y="8746"><tspan fill="rgb(0,0,0)" stroke="none">200</tspan></tspan></tspan></text>
 <text class="TextShape"><tspan class="TextParagraph" font-family="Liberation Sans" font-size="353px" font-weight="400"><tspan class="TextPosition" x="1375" y="7862"><tspan fill="rgb(0,0,0)" stroke="none">400</tspan></tspan></tspan></text>
 <text class="TextShape"><tspan class="TextParagraph" font-family="Liberation Sans" font-size="353px" font-weight="400"><tspan class="TextPosition" x="1375" y="6978"><tspan fill="rgb(0,0,0)" stroke="none">600</tspan></tspan></tspan></text>
 <text class="TextShape"><tspan class="TextParagraph" font-family="Liberation Sans" font-size="353px" font-weight="400"><tspan class="TextPosition" x="1375" y="6094"><tspan fill="rgb(0,0,0)" stroke="none">800</tspan></tspan></tspan></text>
 <text class="TextShape"><tspan class="TextParagraph" font-family="Liberation Sans" font-size="353px" font-weight="400"><tspan class="TextPosition" x="1179" y="5210"><tspan fill="rgb(0,0,0)" stroke="none">1000</tspan></tspan></tspan></text>
 <text class="TextShape"><tspan class="TextParagraph" font-family="Liberation Sans" font-size="353px" font-weight="400"><tspan class="TextPosition" x="1179" y="4326"><tspan fill="rgb(0,0,0)" stroke="none">1200</tspan></tspan></tspan></text>
 <text class="TextShape"><tspan class="TextParagraph" font-family="Liberation Sans" font-size="353px" font-weight="400"><tspan class="TextPosition" x="1179" y="3442"><tspan fill="rgb(0,0,0)" stroke="none">1400</tspan></tspan></tspan></text>
 <text class="TextShape"><tspan class="TextParagraph" font-family="Liberation Sans" font-size="353px" font-weight="400"><tspan class="TextPosition" x="1179" y="2558"><tspan fill="rgb(0,0,0)" stroke="none">1600</tspan></tspan></tspan></text>
 <text class="TextShape"><tspan class="TextParagraph" font-family="Liberation Sans" font-size="353px" font-weight="400"><tspan class="TextPosition" x="1179" y="1674"><tspan fill="rgb(0,0,0)" stroke="none">1800</tspan></tspan></tspan></text>
 <text class="TextShape"><tspan class="TextParagraph" font-family="Liberation Sans" font-size="459px" font-weight="400"><tspan class="TextPosition" x="7805" y="891"><tspan fill="rgb(0,0,0)" stroke="none">Undertow Throughput</tspan></tspan></tspan></text>
 <path fill="none" stroke="rgb(0,69,134)" stroke-width="80" stroke-linejoin="round" d="M 16083,5412 L 16883,5412"/>
 <path fill="rgb(0,69,134)" stroke="none" d="M 16377,5307 L 16377,5518 16588,5518 16588,5307 16377,5307 Z"/>
 <path fill="none" stroke="rgb(0,69,134)" stroke-linejoin="round" d="M 16377,5307 L 16377,5518 16588,5518 16588,5307 16377,5307 Z"/>
 <path fill="none" stroke="rgb(255,66,14)" stroke-width="80" stroke-linejoin="round" d="M 16083,5931 L 16883,5931"/>
 <path fill="rgb(255,66,14)" stroke="none" d="M 16377,5931 L 16483,6037 16588,5931 16483,5826 16377,5931 Z"/>
 <path fill="none" stroke="rgb(255,66,14)" stroke-linejoin="round" d="M 16377,5931 L 16483,6037 16588,5931 16483,5826 16377,5931 Z"/>
 <text class="TextShape"><tspan class="TextParagraph" font-family="Liberation Sans" font-size="353px" font-weight="400"><tspan class="TextPosition" x="16983" y="5538"><tspan fill="rgb(0,0,0)" stroke="none">OpenSSL-TCN2</tspan></tspan></tspan></text>
 <text class="TextShape"><tspan class="TextParagraph" font-family="Liberation Sans" font-size="353px" font-weight="400"><tspan class="TextPosition" x="16983" y="6057"><tspan fill="rgb(0,0,0)" stroke="none">JSSE-SSL</tspan></tspan></tspan></text>
 <text class="TextShape"><tspan class="TextParagraph" font-family="Liberation Sans" font-size="318px" font-weight="400"><tspan class="TextPosition" x="7900" y="10775"><tspan fill="rgb(0,0,0)" stroke="none">File Size</tspan></tspan></tspan></text>
 <text class="TextShape" transform="translate(825,7067) rotate(-90) translate(-825,-7067)"><tspan class="TextParagraph" font-family="Liberation Sans" font-size="318px" font-weight="400"><tspan class="TextPosition" x="825" y="7067"><tspan fill="rgb(0,0,0)" stroke="none">Throughput (MiB/s)</tspan></tspan></tspan></text>
</svg>